<?xml version="1.0" encoding="UTF-8" standalone="no"?>
<!DOCTYPE svg PUBLIC "-//W3C//DTD SVG 1.1//EN" "http://www.w3.org/Graphics/SVG/1.1/DTD/svg11.dtd">
<svg width="100%" height="100%" viewBox="0 0 512 512" version="1.1" xmlns="http://www.w3.org/2000/svg" xmlns:xlink="http://www.w3.org/1999/xlink" xml:space="preserve" xmlns:serif="http://www.serif.com/" style="fill-rule:evenodd;clip-rule:evenodd;stroke-linejoin:round;stroke-miterlimit:1.41421;">
    <g>
        <path d="M369.328,3.015C358.404,3.158 348.197,3.164 339.369,8.319C320.663,19.244 308.153,39.775 308.153,62.924L308.153,125.979C308.153,132.882 301.489,137.754 294.873,135.779C276.865,130.403 257.762,127.599 237.982,127.808C133.156,128.921 48.044,214.892 47.95,319.723C47.854,425.727 134.068,512 240.051,512C267.975,512 294.522,506.001 318.484,495.238C322.176,493.579 326.481,494.174 329.536,496.827C332.499,499.4 335.707,501.697 339.122,503.677C348.502,509.117 358.687,507.666 370.352,507.491C404.374,506.981 421.851,483.103 421.851,449.078L421.851,62C421.851,27.484 403.946,2.565 369.328,3.015ZM240.051,388C202.499,388 171.95,357.45 171.95,319.899C171.95,282.348 202.5,251.798 240.051,251.798C277.602,251.798 308.152,282.348 308.152,319.899C308.152,357.45 277.603,388 240.051,388Z" style="fill:rgb(86,120,255);fill-rule:nonzero;"/>
        <path d="M369.328,0.005C358.404,0.147 348.204,3.175 339.377,8.331C357.885,19.057 370.343,39.069 370.343,62L370.343,449.079C370.343,472.221 357.832,492.741 339.129,503.667C348.509,509.107 359.439,512.168 371.104,511.994C405.125,511.484 432.154,483.104 432.154,449.08L432.154,62C432.153,27.484 403.946,-0.444 369.328,0.005Z" style="fill:rgb(57,82,205);fill-rule:nonzero;"/>
    </g>
</svg>
